<svg width="14" height="14" viewBox="0 0 14 14" fill="none" xmlns="http://www.w3.org/2000/svg">
<g clip-path="url(#clip0_589_95)">
<path d="M4.08333 6.41675H5.25V7.58342H4.08333V6.41675ZM12.25 3.50008V11.6667C12.25 12.3084 11.725 12.8334 11.0833 12.8334H2.91667C2.26917 12.8334 1.75 12.3084 1.75 11.6667L1.75583 3.50008C1.75583 2.85841 2.26917 2.33341 2.91667 2.33341H3.5V1.16675H4.66667V2.33341H9.33333V1.16675H10.5V2.33341H11.0833C11.725 2.33341 12.25 2.85841 12.25 3.50008ZM2.91667 4.66675H11.0833V3.50008H2.91667V4.66675ZM11.0833 11.6667V5.83342H2.91667V11.6667H11.0833ZM8.75 7.58342H9.91667V6.41675H8.75V7.58342ZM6.41667 7.58342H7.58333V6.41675H6.41667V7.58342Z" fill="#6C6C6C"/>
</g>
<defs>
<clipPath id="clip0_589_95">
<rect width="14" height="14" fill="white"/>
</clipPath>
</defs>
</svg>
